<svg xmlns="http://www.w3.org/2000/svg" viewBox="0 0 1277 1277" width="1277" height="1277"><style>		.s0 { fill: #4f98ca } 	</style><g id="Layer 2"><g id="&lt;Group&gt;"><path id="&lt;Path&gt;" class="s0" d="m244.76 862.47l-115.05 284.53h282.65l115.06-284.53z"></path><path id="&lt;Path&gt;" class="s0" d="m549.9 862.47l-115.06 284.53h282.66l115.06-284.53z"></path><path id="&lt;Path&gt;" class="s0" d="m739.98 1147h282.62l115.06-284.53h-282.62z"></path><path id="&lt;Path&gt;" class="s0" d="m978.5 557.12l-115.05 284.5h282.65l115.06-284.5z"></path><path id="&lt;Path&gt;" class="s0" d="m841 841.62l115.02-284.5h-282.65l-115.06 284.5z"></path><path id="&lt;Path&gt;" class="s0" d="m335.32 638.54l-82.11 203.08h282.65l115.02-284.5h-282.62z"></path><path id="&lt;Path&gt;" class="s0" d="m318.92 623.43l32.63-80.66c1.6-3.93 5.42-6.5 9.69-6.5h129.41c12.93-24.15 19.74-51.32 19.74-78.91 0-92.47-75.23-167.71-167.7-167.71-92.47 0-167.74 75.24-167.74 167.71 0 84.37 61.37 154.42 143.97 166.07z"></path><path id="&lt;Path&gt;" class="s0" d="m187.77 612.27c-4.1-4.06-10.7-4.06-14.77 0l-61.05 61.09c-4.07 4.07-4.07 10.67 0 14.73 2.05 2.02 4.69 3.06 7.37 3.06 2.67 0 5.35-1.04 7.36-3.06l61.09-61.05c4.07-4.1 4.07-10.7 0-14.77z"></path><path id="&lt;Path&gt;" class="s0" d="m123.59 457.36c0-5.74-4.66-10.43-10.42-10.43h-86.36c-5.77 0-10.42 4.69-10.42 10.43 0 5.76 4.65 10.42 10.42 10.42h86.36c5.76 0 10.42-4.66 10.42-10.42z"></path><path id="&lt;Path&gt;" class="s0" d="m173 302.44c2.06 2.05 4.73 3.06 7.37 3.06 2.68 0 5.35-1.01 7.4-3.06 4.07-4.06 4.07-10.67 0-14.73l-61.09-61.06c-4.06-4.06-10.67-4.06-14.73 0-4.07 4.07-4.07 10.67 0 14.74z"></path><path id="&lt;Path&gt;" class="s0" d="m342.69 238.29c5.73 0 10.42-4.69 10.42-10.42v-86.35c0-5.77-4.69-10.43-10.42-10.43-5.77 0-10.43 4.66-10.43 10.43v86.35c0 5.73 4.66 10.42 10.43 10.42z"></path><path id="&lt;Path&gt;" class="s0" d="m504.97 305.5c2.67 0 5.32-1.01 7.37-3.06l61.05-61.05c4.07-4.07 4.07-10.67 0-14.74-4.06-4.06-10.67-4.06-14.73 0l-61.06 61.06c-4.06 4.06-4.06 10.67 0 14.73 2.02 2.05 4.69 3.06 7.37 3.06z"></path><path id="&lt;Path&gt;" class="s0" d="m561.75 457.36c0 5.76 4.69 10.42 10.42 10.42h86.36c5.77 0 10.42-4.66 10.42-10.42 0-5.74-4.65-10.43-10.42-10.43h-86.36c-5.73 0-10.42 4.69-10.42 10.43z"></path></g></g></svg>